<?xml version="1.0" standalone="no"?>
<!DOCTYPE svg PUBLIC "-//W3C//DTD SVG 20010904//EN"
 "http://www.w3.org/TR/2001/REC-SVG-20010904/DTD/svg10.dtd">
<svg version="1.0" xmlns="http://www.w3.org/2000/svg"
 width="112.000000pt" height="97.000000pt" viewBox="0 0 112.000000 97.000000"
 preserveAspectRatio="xMidYMid meet">

<g transform="translate(0.000000,97.000000) scale(0.100000,-0.100000)"
fill="#ffffff" stroke="none">
<path d="M192 782 c-7 -5 -10 -16 -6 -25 5 -13 19 -17 63 -17 l56 0 47 -141
47 -140 -20 -33 c-37 -63 -29 -66 180 -66 102 0 192 4 200 9 8 5 11 16 8 25
-6 14 -29 16 -172 16 -103 0 -165 4 -165 10 0 6 59 10 158 10 86 0 163 4 171
9 18 12 102 227 95 246 -15 39 -40 5 -85 -115 l-33 -90 -151 0 -151 0 -49 153
-50 152 -65 3 c-36 1 -71 -2 -78 -6z"/>
<path d="M396 335 c-25 -19 -27 -79 -3 -102 38 -38 117 -7 117 46 0 62 -65 93
-114 56z m62 -33 c15 -10 5 -42 -13 -42 -18 0 -28 17 -21 35 6 17 15 18 34 7z"/>
<path d="M637 333 c-50 -57 1 -138 70 -112 15 6 31 16 35 22 14 22 8 74 -10
90 -24 22 -75 22 -95 0z m62 -32 c17 -11 7 -41 -13 -41 -19 0 -29 17 -22 35 6
17 15 18 35 6z"/>
</g>
</svg>
